<svg xmlns="http://www.w3.org/2000/svg" viewBox="0 0 139.9 121.18"><title>camera</title><g id="Layer_2" data-name="Layer 2"><g id="Layer_1-2" data-name="Layer 1"><path d="M23.76,16.56H34.91L54,1l1.2-1H84.71l1.08,1L105,16.56h11.16a23.78,23.78,0,0,1,16.8,7h0a24.07,24.07,0,0,1,7,16.79V97.43a24.27,24.27,0,0,1-7,16.79h0a23.78,23.78,0,0,1-16.8,7H23.76a23.57,23.57,0,0,1-16.8-7H7A23.75,23.75,0,0,1,0,97.43V40.31A23.56,23.56,0,0,1,7,23.52H7a23.57,23.57,0,0,1,16.8-7Zm12.47,8.16H23.76a15.41,15.41,0,0,0-11,4.56h0a15.18,15.18,0,0,0-4.56,11V97.43a15.38,15.38,0,0,0,4.56,11h0a15.41,15.41,0,0,0,11,4.56h92.38a15.41,15.41,0,0,0,11-4.56h0a15.89,15.89,0,0,0,4.56-11V40.31a15.67,15.67,0,0,0-4.56-11h0a15.41,15.41,0,0,0-11-4.56h-14l-1.08-1L81.83,8.16H58.07l-19.2,15.6-1.2,1Z"/><path d="M70,31.56A36.12,36.12,0,0,1,95.39,42.11a35.37,35.37,0,0,1,0,50.4,35.92,35.92,0,0,1-50.88,0,35.37,35.37,0,0,1,0-50.4A35.91,35.91,0,0,1,70,31.56ZM89.63,47.75a28.11,28.11,0,0,0-39.36,0,27.52,27.52,0,0,0,0,39.12,28.11,28.11,0,0,0,39.36,0,27.52,27.52,0,0,0,0-39.12Z"/></g></g></svg>