<svg xmlns="http://www.w3.org/2000/svg" viewBox="0 0 124.3 126.34"><title>comment</title><g id="Layer_2" data-name="Layer 2"><g id="Layer_1-2" data-name="Layer 1"><path d="M89.51,110.62l20.39,5-2.16-22.31-.12-1.44.6-1.08a54.94,54.94,0,0,0,6-13.56,59.21,59.21,0,0,0,1.92-14.76A54.12,54.12,0,0,0,100.31,24,53.87,53.87,0,0,0,24,24a54.6,54.6,0,0,0,0,76.91,53.87,53.87,0,0,0,62.75,10l1.32-.72Zm24,14.4L89,118.78a63.2,63.2,0,0,1-12.36,4.44,64.92,64.92,0,0,1-14.52,1.68,61.62,61.62,0,0,1-43.91-18.24,62.55,62.55,0,0,1,0-88.3,61.69,61.69,0,0,1,87.82,0A62.18,62.18,0,0,1,124.3,62.51,66.14,66.14,0,0,1,122,79.43a61.19,61.19,0,0,1-6.12,14.4l2.64,26.87.48,5.64Z"/></g></g></svg>