<svg xmlns="http://www.w3.org/2000/svg" viewBox="0 0 148.06 132.02"><title>like</title><g id="Layer_2" data-name="Layer 2"><g id="Layer_1-2" data-name="Layer 1"><path d="M73.43,16.47c5.76-7.8,12.72-12.6,20-14.88a36.47,36.47,0,0,1,22.07.24,45.15,45.15,0,0,1,19,12,49,49,0,0,1,13.56,34.08c0,25.07-20.76,41.39-46.55,61.55-8,6.36-16.56,13.08-24.84,20.28L74,132l-2.64-2.28c-8.28-7.2-16.92-13.92-24.84-20.28C20.76,89.3,0,73,0,47.91a49.94,49.94,0,0,1,13.56-34.2A44.9,44.9,0,0,1,32.16,1.83a34.92,34.92,0,0,1,21.59-.24c7.2,2.28,14,7.08,19.68,14.88ZM95.87,9.39c-7.08,2.16-13.68,7.44-19,16.56l-3.48,6.12L70,26c-5.28-9.24-11.76-14.4-18.6-16.68a27.26,27.26,0,0,0-16.67.24,36.43,36.43,0,0,0-15.24,9.72A42.28,42.28,0,0,0,8.16,47.91c0,21.23,19.32,36.35,43.31,55.19,7.2,5.64,14.76,11.52,22.56,18.24,7.8-6.72,15.36-12.6,22.44-18.24,24.11-18.84,43.43-34,43.43-55.19a41.2,41.2,0,0,0-11.28-28.56,38.27,38.27,0,0,0-15.48-9.84,29.22,29.22,0,0,0-17.27-.12Z"/></g></g></svg>